<?xml version="1.0" standalone="no"?>
<!DOCTYPE svg PUBLIC "-//W3C//DTD SVG 20010904//EN"
 "http://www.w3.org/TR/2001/REC-SVG-20010904/DTD/svg10.dtd">
<svg version="1.0" xmlns="http://www.w3.org/2000/svg"
 width="477.000000pt" height="236.000000pt" viewBox="0 0 477.000000 236.000000"
 preserveAspectRatio="xMidYMid meet">

<g transform="translate(0.000000,236.000000) scale(0.100000,-0.100000)"
fill="#000000" stroke="none">
<path d="M2191 2175 l-58 -55 -600 0 c-663 0 -655 1 -721 -63 -19 -18 -43 -50
-55 -72 -22 -40 -22 -43 -25 -774 -3 -834 -5 -809 72 -885 81 -82 -23 -77
1447 -74 l1304 3 40 22 c47 25 85 64 111 113 18 33 19 73 19 795 l0 760 -22
40 c-12 22 -36 54 -55 72 -66 63 -61 63 -696 63 l-575 0 -52 55 c-28 30 -57
55 -64 55 -7 0 -38 -25 -70 -55z m229 -265 c78 -88 139 -160 137 -160 -3 0
-37 19 -77 41 l-71 42 -36 -34 c-19 -19 -64 -69 -98 -111 l-63 -77 -46 79
c-25 44 -48 80 -51 80 -11 0 -109 -42 -194 -84 -52 -25 -96 -46 -99 -46 -10 0
434 429 445 430 6 0 75 -72 153 -160z m-468 13 c-398 -423 -530 -535 -885
-752 -120 -74 -212 -121 -235 -121 -11 0 -12 82 -10 428 3 464 2 455 61 510
54 50 64 51 641 52 l538 0 -110 -117z m1550 107 c50 -14 97 -55 119 -105 17
-36 19 -73 19 -414 l0 -373 -77 68 c-137 120 -204 183 -418 395 -115 114 -219
210 -230 213 -14 4 -48 -11 -110 -49 l-90 -55 -49 53 c-38 41 -171 201 -219
265 -12 16 997 18 1055 2z m-1399 -587 c14 -38 75 -191 136 -341 61 -150 111
-275 111 -278 0 -3 -41 -3 -92 -2 l-92 3 -21 53 -20 52 -145 0 -145 0 -20 -52
-21 -53 -93 -3 c-86 -3 -93 -1 -88 15 7 22 231 583 254 636 l16 37 97 0 97 0
26 -67z m731 41 c63 -22 121 -80 137 -136 6 -24 9 -74 6 -111 -10 -142 -87
-196 -279 -197 l-108 0 0 -110 0 -110 -85 0 -85 0 0 338 c0 186 3 342 8 347 4
4 86 5 182 2 129 -4 188 -10 224 -23z m-1746 -954 l50 -150 -33 0 c-28 0 -35
5 -44 30 -9 27 -14 30 -55 30 -41 0 -45 -2 -51 -30 -6 -26 -11 -30 -40 -30
l-32 0 45 150 46 150 32 0 32 0 50 -150z m122 0 l0 -150 -30 0 -30 0 0 150 0
150 30 0 30 0 0 -150z m210 135 c37 -19 50 -43 50 -90 0 -26 -7 -43 -24 -58
l-24 -21 29 -58 29 -58 -33 0 c-30 0 -35 5 -60 55 -15 30 -34 55 -42 55 -12 0
-15 -13 -15 -55 0 -54 0 -55 -29 -55 l-30 0 -3 146 c-2 80 -1 148 1 150 11 11
125 2 151 -11z m325 5 c33 -13 59 -71 51 -115 -9 -44 -36 -66 -87 -70 l-43 -3
3 -51 2 -51 -35 0 -36 0 0 150 0 150 59 0 c33 0 71 -4 86 -10z m249 -134 c25
-79 46 -147 46 -150 0 -3 -15 -6 -34 -6 -29 0 -34 4 -39 30 -6 28 -10 30 -51
30 -41 0 -45 -2 -51 -30 -6 -26 -11 -30 -40 -30 -23 0 -33 4 -30 13 6 21 33
109 60 200 26 87 26 87 59 87 l34 0 46 -144z m224 112 c3 -26 1 -28 -32 -28
l-36 0 0 -120 0 -120 -36 0 -35 0 3 120 3 120 -32 0 c-30 0 -33 3 -33 30 l0
31 98 -3 97 -3 3 -27z m172 -75 c18 -60 39 -127 46 -150 l13 -43 -34 0 c-29 0
-34 4 -40 30 -6 28 -10 30 -50 30 -40 0 -44 -2 -50 -30 -6 -26 -11 -30 -42
-30 -25 0 -34 4 -30 13 3 7 21 69 41 138 20 68 39 130 41 137 2 6 20 12 38 12
l34 0 33 -107z m257 72 c33 -38 31 -65 -6 -65 -21 0 -32 6 -36 19 -9 29 -43
36 -66 15 -15 -13 -19 -31 -19 -81 0 -35 5 -73 10 -84 13 -24 65 -26 74 -3 12
31 6 44 -19 44 -20 0 -25 5 -25 25 0 24 3 25 55 25 l55 0 0 -55 c0 -46 -4 -60
-25 -80 -34 -35 -112 -35 -152 -1 -25 22 -28 31 -31 105 -2 45 -1 93 2 106 17
66 136 85 183 30z m256 -5 c25 -28 27 -37 27 -114 0 -75 -3 -88 -25 -114 -44
-52 -145 -50 -180 5 -23 35 -30 137 -13 188 26 79 134 99 191 35z m171 -47
l45 -88 0 88 1 87 30 0 30 0 0 -155 0 -155 -28 0 c-25 0 -32 9 -75 93 l-47 92
2 -90 1 -90 -29 0 -29 0 -3 153 -3 152 31 0 c27 0 33 -7 74 -87z m217 -68 l0
-150 -30 -3 -31 -3 0 156 0 156 31 -3 30 -3 0 -150z m219 53 c17 -57 38 -123
46 -147 8 -25 14 -46 14 -48 0 -2 -15 -3 -34 -3 -29 0 -34 4 -39 30 -6 28 -10
30 -50 30 -41 0 -45 -2 -50 -29 -5 -23 -12 -30 -39 -34 -18 -2 -34 -4 -35 -3
-1 1 18 70 44 154 l46 152 33 0 33 0 31 -102z"/>
<path d="M1928 1188 c-27 -67 -46 -123 -44 -125 2 -2 46 -2 99 -1 l95 3 -45
115 c-25 63 -48 118 -52 122 -3 4 -27 -48 -53 -114z"/>
<path d="M2590 1264 l0 -96 91 4 c81 3 93 6 110 27 26 32 25 100 -2 135 -19
25 -25 26 -110 26 l-89 0 0 -96z"/>
<path d="M997 568 c-4 -18 -9 -43 -13 -55 -6 -20 -3 -23 24 -23 l30 0 -13 51
c-17 64 -21 68 -28 27z"/>
<path d="M1330 583 c0 -41 1 -43 29 -43 34 0 54 20 49 52 -2 18 -11 24 -40 29
l-38 6 0 -44z"/>
<path d="M1666 623 c-3 -4 -6 -24 -6 -45 0 -38 1 -39 33 -36 27 3 33 7 35 32
2 16 0 32 -5 37 -12 12 -49 19 -57 12z"/>
<path d="M1902 558 c-16 -64 -16 -68 13 -68 29 0 29 -1 12 65 l-13 50 -12 -47z"/>
<path d="M2317 585 c-3 -11 -9 -37 -13 -57 -6 -36 -5 -38 20 -38 14 0 26 1 26
3 -1 1 -7 27 -14 57 -9 40 -14 50 -19 35z"/>
<path d="M2782 608 c-16 -16 -16 -150 0 -166 19 -19 66 -15 78 7 5 11 10 45
10 76 0 31 -5 65 -10 76 -12 22 -59 26 -78 7z"/>
<path d="M3436 556 c-4 -20 -10 -44 -13 -52 -4 -10 3 -14 22 -14 25 0 26 2 19
33 -14 67 -20 74 -28 33z"/>
</g>
</svg>
